<svg width="512" height="512" viewBox="0 0 512 512" fill="none" xmlns="http://www.w3.org/2000/svg">
  <rect width="512" height="512" rx="128" fill="url(#gradient6)"/>
  <!-- Forma de cérebro estilizada -->
  <path d="M200 200Q180 240 200 280Q220 320 256 320Q292 320 312 280Q332 240 312 200Q292 160 256 160Q220 160 200 200Z" fill="white" opacity="0.2"/>
  <!-- Circuitos internos -->
  <circle cx="220" cy="240" r="24" fill="white" opacity="0.8"/>
  <circle cx="256" cy="220" r="24" fill="white" opacity="0.8"/>
  <circle cx="292" cy="240" r="24" fill="white" opacity="0.8"/>
  <circle cx="256" cy="280" r="24" fill="white" opacity="0.8"/>
  <!-- Conexões -->
  <line x1="244" y1="232" x2="252" y2="232" stroke="white" stroke-width="8" opacity="0.6"/>
  <line x1="268" y1="232" x2="276" y2="232" stroke="white" stroke-width="8" opacity="0.6"/>
  <line x1="244" y1="272" x2="252" y2="272" stroke="white" stroke-width="8" opacity="0.6"/>
  <line x1="268" y1="272" x2="276" y2="272" stroke="white" stroke-width="8" opacity="0.6"/>
  <line x1="256" y1="244" x2="256" y2="252" stroke="white" stroke-width="8" opacity="0.6"/>
  <line x1="256" y1="268" x2="256" y2="276" stroke="white" stroke-width="8" opacity="0.6"/>
  <!-- Ponto central de foco -->
  <circle cx="256" cy="250" r="12" fill="url(#gradient6)"/>
  <defs>
    <linearGradient id="gradient6" x1="0" y1="0" x2="512" y2="512" gradientUnits="userSpaceOnUse">
      <stop offset="0%" stop-color="#06B6D4"/>
      <stop offset="100%" stop-color="#0EA5E9"/>
    </linearGradient>
  </defs>
</svg>
