<svg width="512" height="512" viewBox="0 0 512 512" fill="none" xmlns="http://www.w3.org/2000/svg">
  <rect width="512" height="512" rx="128" fill="url(#gradient10)"/>
  <!-- Grid de pontos (matriz) -->
  <circle cx="180" cy="180" r="8" fill="white" opacity="0.4"/>
  <circle cx="256" cy="180" r="8" fill="white" opacity="0.4"/>
  <circle cx="332" cy="180" r="8" fill="white" opacity="0.4"/>
  <circle cx="180" cy="256" r="8" fill="white" opacity="0.4"/>
  <circle cx="332" cy="256" r="8" fill="white" opacity="0.4"/>
  <circle cx="180" cy="332" r="8" fill="white" opacity="0.4"/>
  <circle cx="256" cy="332" r="8" fill="white" opacity="0.4"/>
  <circle cx="332" cy="332" r="8" fill="white" opacity="0.4"/>
  <!-- Círculo central de foco -->
  <circle cx="256" cy="256" r="100" stroke="white" stroke-width="8" fill="none" opacity="0.3"/>
  <circle cx="256" cy="256" r="70" fill="white" opacity="0.2"/>
  <circle cx="256" cy="256" r="40" fill="white" opacity="0.9"/>
  <circle cx="256" cy="256" r="20" fill="url(#gradient10)"/>
  <!-- Linhas conectando pontos ao centro -->
  <line x1="180" y1="180" x2="236" y2="236" stroke="white" stroke-width="4" opacity="0.3"/>
  <line x1="332" y1="180" x2="276" y2="236" stroke="white" stroke-width="4" opacity="0.3"/>
  <line x1="180" y1="332" x2="236" y2="276" stroke="white" stroke-width="4" opacity="0.3"/>
  <line x1="332" y1="332" x2="276" y2="276" stroke="white" stroke-width="4" opacity="0.3"/>
  <defs>
    <linearGradient id="gradient10" x1="0" y1="0" x2="512" y2="512" gradientUnits="userSpaceOnUse">
      <stop offset="0%" stop-color="#06B6D4"/>
      <stop offset="100%" stop-color="#0EA5E9"/>
    </linearGradient>
  </defs>
</svg>
